<?xml version="1.0" encoding="UTF-8"?>
<svg id="_图层_2" data-name="图层 2" xmlns="http://www.w3.org/2000/svg" viewBox="0 0 168.19 168.19">
  <defs>
    <style>
      .cls-1, .cls-2 {
        fill: #231815;
      }

      .cls-3 {
        fill: none;
      }

      .cls-4 {
        fill: #e50012;
      }

      .cls-2 {
        font-family: MyriadPro-Semibold, 'MyriadPro Semibold';
        font-size: 17px;
        font-weight: 600;
      }
    </style>
  </defs>
  <g id="_图层_1-2" data-name="图层 1">
    <g>
      <g>
        <path class="cls-3" d="M140.79,27.4c-14.52,5.23-42.37,6.58-42.37-13.13,0-12.01-13.99-14.14-23.01-14.27-4.12-.06-7.47,3.26-7.47,7.38,0,10.96-8.89,20.04-19.85,20.04h-20.68s.01,20.67.01,20.67c0,10.96-9.07,19.85-20.04,19.85-4.12,0-7.44,3.35-7.38,7.47.13,9.02,2.26,23.01,14.27,23.01,19.71,0,18.37,27.86,13.13,42.37,14.52-5.23,42.37-6.59,42.37,13.13,0,12.01,13.99,14.14,23.01,14.27,4.12.06,7.47-3.26,7.47-7.38,0-10.96,8.89-20.04,19.85-20.04h20.68s-.01-20.67-.01-20.67c0-10.96,9.07-19.85,20.04-19.85,4.12,0,7.44-3.35,7.38-7.47-.13-9.02-2.26-23.01-14.27-23.01-19.71,0-18.36-27.86-13.13-42.37Z"/>
        <path class="cls-1" d="M167.77,93.23c0,3.83-3.13,6.6-6.96,6.6-11.28,0-20.45,9.09-20.45,20.27v17.43c.01,1.57-1.26,2.84-2.83,2.84h-17.42c-7.84-.01-15.02,4.49-18.68,12.31-1.2,2.56-1.56,5.4-1.59,8.23-.02,1.85-.76,3.58-2.07,4.88-1.33,1.31-3.09,2.02-4.97,1.99-8.44-.12-22.59-2.08-22.59-13.85,0-5.47-2.09-9.72-6.22-12.62-7.32-5.14-20.41-5.16-31.14-2.57-2.06.5-3.88-1.32-3.38-3.38,1.1-4.58,1.72-9.55,1.72-14.09,0-14.79-6.16-23.27-16.9-23.27-11.77,0-13.73-14.15-13.85-22.59,0-3.93,3.12-7.04,6.95-7.04,5.42,0,10.55-2.11,14.43-5.93,3.89-3.84,6.04-8.93,6.03-14.33v-17.43c-.01-1.57,1.26-2.84,2.83-2.84h17.42c7.84.01,15.02-4.49,18.68-12.31,1.2-2.56,1.56-5.4,1.6-8.23.02-1.85.75-3.58,2.07-4.87,1.33-1.31,3.09-2.02,4.97-2,8.44.12,22.59,2.08,22.59,13.85,0,5.47,2.09,9.72,6.22,12.62,7.31,5.14,20.39,5.17,31.12,2.58,2.07-.5,3.89,1.32,3.4,3.39-1.1,4.58-1.71,9.54-1.71,14.07,0,14.79,6.16,23.27,16.9,23.27,11.77,0,13.73,14.15,13.85,22.59v.44Z"/>
        <path class="cls-4" d="M163.8,92.89c0,1.64-1.34,2.97-2.98,2.97-13.47,0-24.43,10.87-24.43,24.24v15.16c0,.63-.5,1.13-1.13,1.13h-15.15c-6.48-.01-12.57,2.55-17.17,7.2-4.57,4.62-7.08,10.74-7.08,17.22,0,.82-.31,1.56-.89,2.13-.58.57-1.31.86-2.13.85-6.98-.1-18.68-1.51-18.68-9.88,0-6.74-2.74-12.23-7.91-15.86-7.79-5.47-20.17-5.93-30.93-3.92-.78.15-1.42-.51-1.28-1.29.71-3.86,1.1-7.84,1.1-11.58,0-17.06-7.8-27.24-20.87-27.24-8.37,0-9.78-11.7-9.88-18.68,0-1.67,1.31-3.01,2.98-3.01,6.47,0,12.59-2.51,17.21-7.08,4.65-4.59,7.22-10.68,7.22-17.15v-15.16c0-.63.5-1.13,1.13-1.13h15.15c6.48.01,12.57-2.55,17.17-7.2,4.57-4.62,7.08-10.74,7.08-17.22,0-.82.31-1.56.89-2.13.58-.57,1.31-.87,2.13-.85,6.97.1,18.68,1.51,18.68,9.88,0,6.74,2.74,12.23,7.91,15.87,7.79,5.47,20.16,5.93,30.93,3.92.78-.15,1.43.51,1.29,1.29-.71,3.86-1.1,7.84-1.1,11.58,0,17.06,7.8,27.24,20.87,27.24,8.35,0,9.78,11.67,9.88,18.65v.07Z"/>
      </g>
      <text class="cls-2" transform="translate(10 87.08)"><tspan x="0" y="0">1+</tspan></text>
      <text class="cls-2" transform="translate(138.08 90.81)"><tspan x="0" y="0">1+</tspan></text>
      <text class="cls-2" transform="translate(71.52 25.56)"><tspan x="0" y="0">1’+</tspan></text>
      <text class="cls-2" transform="translate(73.06 154.16)"><tspan x="0" y="0">1’+</tspan></text>
    </g>
  </g>
</svg>