<?xml version="1.0" encoding="UTF-8"?>
<svg id="_图层_2" data-name="图层 2" xmlns="http://www.w3.org/2000/svg" viewBox="0 0 120.08 120.07">
  <defs>
    <style>
      .cls-1, .cls-2 {
        fill: #231815;
      }

      .cls-2 {
        font-family: MyriadPro-Semibold, 'MyriadPro Semibold';
        font-size: 16px;
        font-weight: 600;
      }

      .cls-3 {
        fill: #7dccf3;
      }

      .cls-4 {
        fill: none;
      }
    </style>
  </defs>
  <g id="_图层_1-2" data-name="图层 1">
    <g>
      <g>
        <path class="cls-4" d="M116.73,116.73v-20.68c.02-10.96-9.06-19.85-20.02-19.85-4.12,0-7.44-3.35-7.38-7.47.13-9.02,2.26-23.01,14.27-23.01,19.71,0,18.36-27.86,13.13-42.37-14.52-5.23-42.37-6.58-42.37,13.13,0,12.01-13.99,14.14-23.01,14.27-4.12.06-7.47-3.26-7.47-7.38,0-10.96-8.89-20.04-19.85-20.04H3.34C-1.89,17.86-3.24,45.72,16.47,45.72c12.01,0,14.14,13.99,14.27,23.01.06,4.12-3.26,7.47-7.38,7.47-10.96,0-20.04,8.89-20.04,19.85v20.68s20.69.01,20.69.01c10.96,0,19.85-9.07,19.85-20.04,0-4.12,3.35-7.44,7.47-7.38,9.02.13,23.01,2.26,23.01,14.27,0,19.71,27.86,18.36,42.37,13.13Z"/>
        <path class="cls-1" d="M97.2,119.65c-8.37,0-22.42-2.09-22.42-16.05,0-12.5-14.68-14.57-23.43-14.7h0c-4.41,0-7.9,3.5-7.9,7.8,0,10.81-8.71,19.61-19.42,19.61H6.6c-1.56-.01-2.83-1.28-2.83-2.84v-17.42c-.01-7.24,4-13.89,10.99-17.5,2.8-1.45,5.99-1.74,9.13-1.94,1.91-.12,3.68-.93,5.04-2.31,1.47-1.49,2.27-3.47,2.24-5.58-.12-8.75-2.2-23.43-14.7-23.43-5.18,0-9.19-1.97-11.92-5.86C-.97,31.57-.39,16.73,3,5.72c.36-1.18,1.48-1.95,2.71-1.95h18.31c10.72-.01,19.43,8.79,19.43,19.6,0,2.09.81,4.05,2.28,5.52,1.47,1.47,3.42,2.28,5.51,2.28,8.86-.12,23.54-2.2,23.54-14.7C74.78,2.51,88.83.42,97.2.42c5.89,0,12.52,1.06,18.04,2.86.85.28,1.51.94,1.78,1.8,3.4,10.85,4.17,26.27-1.5,34.35-2.73,3.89-6.74,5.86-11.92,5.86-12.5,0-14.57,14.68-14.7,23.43-.03,2.1.76,4.08,2.24,5.58,1.36,1.38,3.13,2.18,5.04,2.31,3.14.2,6.33.5,9.12,1.94,7,3.61,11.01,10.27,11.01,17.51v18.31c-.01,1.24-.79,2.36-1.97,2.72-5.33,1.63-11.58,2.58-17.15,2.58h0Z"/>
        <path class="cls-3" d="M97.2,115.68c-12.24,0-18.45-4.07-18.45-12.08,0-11.62-9.97-18.42-27.34-18.66-6.6,0-11.92,5.28-11.92,11.77,0,8.63-6.93,15.64-15.45,15.64h-15.17c-.63,0-1.13-.52-1.13-1.14v-15.16c-.01-4.82,2.24-9.32,6.26-12.35,2.78-2.09,6.27-3.01,9.74-3.12,3.04-.09,5.88-1.33,8.02-3.5,2.23-2.26,3.43-5.25,3.38-8.42-.24-17.38-7.05-27.34-18.66-27.34-3.86,0-6.7-1.37-8.67-4.17-4.36-6.21-4.17-18.66-1.49-28.58.13-.5.6-.84,1.11-.84h16.61c8.52,0,15.46,7.01,15.46,15.63,0,3.15,1.22,6.1,3.44,8.32,2.22,2.22,5.17,3.45,8.31,3.45,17.5-.25,27.51-7.05,27.51-18.67,0-8.02,6.21-12.08,18.45-12.08,5.08,0,10.74.84,15.63,2.3.37.11.66.4.77.78,2.89,10.1,3.2,23.25-1.32,29.69-1.97,2.81-4.81,4.17-8.67,4.17-11.62,0-18.42,9.97-18.66,27.34-.05,3.17,1.15,6.16,3.38,8.42,2.14,2.17,4.98,3.41,8.02,3.5,3.48.11,6.97,1.02,9.75,3.12,4.02,3.03,6.27,7.53,6.26,12.35v16.6c0,.52-.35.98-.85,1.11-4.57,1.22-9.69,1.92-14.3,1.92h0Z"/>
      </g>
      <text class="cls-2" transform="translate(67.12 65.02)"><tspan x="0" y="0">1’-</tspan></text>
      <text class="cls-2" transform="translate(54.1 46.77)"><tspan x="0" y="0">1-</tspan></text>
      <text class="cls-2" transform="translate(36.12 66.75)"><tspan x="0" y="0">1-</tspan></text>
      <text class="cls-2" transform="translate(54.1 83.77)"><tspan x="0" y="0">1’-</tspan></text>
    </g>
  </g>
</svg>