<?xml version="1.0" encoding="UTF-8"?>
<svg id="_图层_2" data-name="图层 2" xmlns="http://www.w3.org/2000/svg" viewBox="0 0 144.13 144.13">
  <defs>
    <style>
      .cls-1, .cls-2, .cls-3 {
        fill: #231815;
      }

      .cls-4 {
        fill: #7fc16f;
      }

      .cls-2 {
        font-size: 16px;
      }

      .cls-2, .cls-3 {
        font-family: MyriadPro-Semibold, 'MyriadPro Semibold';
        font-weight: 600;
      }

      .cls-5 {
        fill: none;
      }

      .cls-3 {
        font-size: 17px;
      }
    </style>
  </defs>
  <g id="_图层_1-2" data-name="图层 1">
    <g>
      <g>
        <path class="cls-5" d="M27.4,140.79h20.68c10.96.02,19.85-9.06,19.85-20.02,0-4.12,3.35-7.44,7.47-7.38,9.02.13,23.01,2.26,23.01,14.27,0,19.71,27.86,18.36,42.37,13.13,5.24-14.52,6.59-42.37-13.13-42.37-12.01,0-14.14-13.99-14.27-23.01-.06-4.12,3.26-7.47,7.38-7.47,10.96,0,20.04-8.89,20.04-19.85v-20.68s-20.69.01-20.69.01c-10.96,0-19.85-9.07-19.85-20.04,0-4.12-3.35-7.44-7.47-7.38-9.02.13-23.01,2.26-23.01,14.27,0,19.71-27.86,18.36-42.37,13.13,5.23,14.52,6.59,42.37-13.13,42.37-12.01,0-14.14,13.99-14.27,23.01-.06,4.12,3.26,7.47,7.38,7.47,10.96,0,20.04,8.89,20.04,19.85v20.68Z"/>
        <path class="cls-1" d="M143.71,121.26c0,5.89-1.06,12.52-2.86,18.04-.28.85-.94,1.51-1.8,1.78-10.85,3.4-26.27,4.17-34.35-1.5-3.89-2.73-5.86-6.74-5.86-11.92,0-12.5-14.68-14.57-23.43-14.7-2.1-.03-4.08.76-5.58,2.24-1.37,1.36-2.18,3.13-2.31,5.04-.2,3.14-.49,6.33-1.94,9.13-3.62,6.99-10.27,11.01-17.51,11h-17.42c-1.57-.01-2.83-1.28-2.83-2.85v-17.42c0-11.19-9.17-20.28-20.45-20.28-3.83,0-6.95-3.11-6.95-6.94.12-8.54,2.08-22.69,13.85-22.69,5.9,0,10.36-2.42,13.26-7.2,2.38-3.93,3.64-9.49,3.64-16.07,0-4.53-.62-9.5-1.72-14.08-.49-2.07,1.33-3.88,3.39-3.38,10.73,2.59,23.82,2.56,31.13-2.58,4.13-2.9,6.22-7.15,6.22-12.62,0-11.77,14.15-13.73,22.59-13.85,1.87-.03,3.64.68,4.97,2,1.31,1.3,2.05,3.02,2.07,4.87.03,2.83.39,5.67,1.6,8.24,3.67,7.81,10.85,12.32,18.68,12.31h17.42c1.57,0,2.84,1.26,2.84,2.82v17.42c.01,10.72-8.79,19.43-19.6,19.43-4.3,0-7.8,3.49-7.8,7.79.12,8.86,2.2,23.54,14.7,23.54,13.96,0,16.05,14.05,16.05,22.42Z"/>
        <path class="cls-4" d="M139.74,121.26c0,5.08-.84,10.75-2.3,15.63-.11.37-.4.66-.78.77-10.1,2.89-23.25,3.2-29.68-1.32-2.81-1.97-4.17-4.81-4.17-8.67,0-11.62-9.97-18.42-27.34-18.66-3.17-.05-6.16,1.15-8.42,3.38-2.17,2.14-3.41,4.98-3.5,8.02-.1,3.48-1.02,6.96-3.12,9.74-3.03,4.02-7.53,6.27-12.35,6.27h-15.15c-.63,0-1.13-.52-1.13-1.14v-15.15c0-13.43-11.05-24.34-24.6-24.25-1.58.01-2.83-1.32-2.81-2.9.09-6.95,1.48-18.8,9.88-18.8,7.28,0,13.04-3.15,16.65-9.11,2.76-4.55,4.22-10.82,4.22-18.12,0-3.75-.38-7.73-1.1-11.59-.14-.78.51-1.44,1.29-1.29,10.77,2.01,23.14,1.55,30.93-3.92,5.17-3.64,7.91-9.12,7.91-15.86,0-8.37,11.7-9.78,18.68-9.88.81-.01,1.55.28,2.12.85.58.57.89,1.31.89,2.13,0,6.48,2.52,12.59,7.08,17.22,4.59,4.65,10.69,7.22,17.17,7.21h15.15c.63,0,1.13.5,1.13,1.13v15.15c0,8.52-7.01,15.46-15.63,15.46-6.49,0-11.77,5.27-11.77,11.75.25,17.5,7.05,27.51,18.67,27.51,8.02,0,12.08,6.21,12.08,18.45Z"/>
      </g>
      <text class="cls-3" transform="translate(8.38 90.08)"><tspan x="0" y="0">1’+</tspan></text>
      <text class="cls-3" transform="translate(92.99 90.08)"><tspan x="0" y="0">1-</tspan></text>
      <text class="cls-3" transform="translate(72.07 107.82)"><tspan x="0" y="0">1’-</tspan></text>
      <text class="cls-2" transform="translate(77.03 21.37)"><tspan x="0" y="0">1+</tspan></text>
    </g>
  </g>
</svg>