<?xml version="1.0" encoding="UTF-8"?>
<svg id="_图层_2" data-name="图层 2" xmlns="http://www.w3.org/2000/svg" viewBox="0 0 144.13 144.13">
  <defs>
    <style>
      .cls-1, .cls-2, .cls-3 {
        fill: #231815;
      }

      .cls-2 {
        font-size: 16px;
      }

      .cls-2, .cls-3 {
        font-family: MyriadPro-Semibold, 'MyriadPro Semibold';
        font-weight: 600;
      }

      .cls-4 {
        fill: none;
      }

      .cls-5 {
        fill: #e1a300;
      }

      .cls-3 {
        font-size: 17px;
      }
    </style>
  </defs>
  <g id="_图层_1-2" data-name="图层 1">
    <g>
      <g>
        <path class="cls-4" d="M27.4,140.79c5.23-14.52,6.58-42.37-13.13-42.37-12.01,0-14.14-13.99-14.27-23.01-.06-4.12,3.26-7.47,7.38-7.47,10.96,0,20.04-8.89,20.04-19.85v-20.68s20.67.01,20.67.01c10.96,0,19.85-9.07,19.85-20.04,0-4.12,3.35-7.44,7.47-7.38,9.02.13,23.01,2.26,23.01,14.27,0,19.71,27.86,18.37,42.37,13.13v20.68c.02,10.96-9.06,19.85-20.02,19.85-4.12,0-7.44,3.35-7.38,7.47.13,9.02,2.26,23.01,14.27,23.01,19.71,0,18.37,27.86,13.13,42.37-14.52,5.23-42.37,6.58-42.37-13.13,0-12.01-13.99-14.14-23.01-14.27-4.12-.06-7.47,3.26-7.47,7.38,0,10.96-8.89,20.04-19.85,20.04h-20.68Z"/>
        <path class="cls-1" d="M75.4.43c8.44.12,22.59,2.08,22.59,13.85,0,10.74,8.48,16.9,23.27,16.9,5.04,0,10.61-.76,15.6-2.1,1.78-.48,3.51.9,3.51,2.74v16.27c.01,7.24-4,13.89-11,17.51-2.8,1.44-5.98,1.74-9.12,1.94-1.91.12-3.69.93-5.04,2.31-1.47,1.49-2.27,3.47-2.24,5.58.12,8.75,2.2,23.43,14.7,23.43,5.18,0,9.19,1.97,11.92,5.86,5.68,8.09,4.9,23.53,1.26,34.62-.28.85-.94,1.49-1.79,1.75-5.31,1.59-11.92,2.64-17.79,2.64-8.37,0-22.42-2.08-22.42-16.05,0-12.5-14.68-14.57-23.43-14.7h0c-4.41,0-7.9,3.5-7.9,7.8,0,10.81-8.71,19.61-19.42,19.61h-16.28c-1.85-.01-3.22-1.74-2.74-3.52,2.96-10.98,3.19-24.98-2.19-32.64-2.9-4.13-7.15-6.22-12.62-6.22-11.77,0-13.73-14.15-13.85-22.59-.03-1.87.68-3.64,2-4.97,1.3-1.31,3.02-2.05,4.87-2.07,2.83-.03,5.67-.39,8.24-1.6,7.81-3.67,12.32-10.85,12.31-18.68v-17.42c-.01-1.57,1.26-2.84,2.83-2.84h17.42c11.18,0,20.27-9.16,20.28-20.44,0-3.83,2.76-6.96,6.6-6.96h.44Z"/>
        <path class="cls-5" d="M75.4,4.39c6.92.1,18.62,1.51,18.62,9.88,0,13.07,10.18,20.87,27.24,20.87,4.47,0,9.25-.54,13.78-1.54.7-.15,1.36.36,1.36,1.08v13.4c.01,4.82-2.24,9.32-6.25,12.35-2.78,2.1-6.27,3.01-9.75,3.12-3.04.09-5.87,1.33-8.02,3.5-2.23,2.26-3.43,5.25-3.38,8.42.24,17.38,7.05,27.34,18.66,27.34,3.86,0,6.7,1.37,8.67,4.17,4.57,6.51,4.16,19.74,1.13,29.87-.11.38-.4.66-.78.76-4.88,1.33-10.57,2.12-15.42,2.12-12.24,0-18.45-4.06-18.45-12.08,0-11.62-9.97-18.42-27.34-18.66-6.6,0-11.92,5.28-11.92,11.77,0,8.62-6.93,15.64-15.45,15.64h-13.4c-.72,0-1.24-.66-1.09-1.36,2.53-11.51,2.16-25.1-3.47-33.11-3.63-5.17-9.12-7.91-15.86-7.91-8.36,0-9.78-11.7-9.88-18.68-.01-.81.28-1.55.85-2.12.57-.58,1.31-.89,2.13-.89,6.48,0,12.59-2.52,17.22-7.08,4.65-4.59,7.21-10.69,7.21-17.17v-15.15c0-.63.5-1.13,1.13-1.13h15.15c13.37,0,24.25-10.95,24.25-24.42,0-1.65,1.33-2.98,2.97-2.98h.1Z"/>
      </g>
      <text class="cls-3" transform="translate(8.9 87.08)"><tspan x="0" y="0">1+</tspan></text>
      <text class="cls-3" transform="translate(91.09 87.08)"><tspan x="0" y="0">1-</tspan></text>
      <text class="cls-3" transform="translate(73.91 107.26)"><tspan x="0" y="0">1’-</tspan></text>
      <text class="cls-2" transform="translate(72.07 21.37)"><tspan x="0" y="0">1’+</tspan></text>
    </g>
  </g>
</svg>